<svg width="190" height="50" viewBox="0 0 190 50" fill="none" xmlns="http://www.w3.org/2000/svg">
<path d="M0.5 25C0.5 11.469 11.469 0.5 25 0.5H165C178.531 0.5 189.5 11.469 189.5 25C189.5 38.531 178.531 49.5 165 49.5H25C11.469 49.5 0.5 38.531 0.5 25Z" stroke="black"/>
<path d="M64.9182 31V17.9091H72.8188V19.3153H66.5035V23.7386H72.4097V25.1449H66.5035V29.5938H72.9211V31H64.9182ZM76.5965 21.1818L78.9488 25.196L81.301 21.1818H83.0397L79.8692 26.0909L83.0397 31H81.301L78.9488 27.1903L76.5965 31H74.8579L77.9772 26.0909L74.8579 21.1818H76.5965ZM85.1922 34.6818V21.1818H86.6496V22.7415H86.8286C86.9394 22.571 87.0928 22.3537 87.2888 22.0895C87.4891 21.821 87.7746 21.5824 88.1453 21.3736C88.5203 21.1605 89.0274 21.054 89.6666 21.054C90.4933 21.054 91.222 21.2607 91.8527 21.674C92.4834 22.0874 92.9756 22.6733 93.3293 23.4318C93.683 24.1903 93.8598 25.0852 93.8598 26.1165C93.8598 27.1562 93.683 28.0575 93.3293 28.8203C92.9756 29.5788 92.4855 30.1669 91.8591 30.5845C91.2327 30.9979 90.5104 31.2045 89.6922 31.2045C89.0615 31.2045 88.5566 31.1001 88.1773 30.8913C87.798 30.6783 87.5061 30.4375 87.3016 30.169C87.097 29.8963 86.9394 29.6705 86.8286 29.4915H86.7007V34.6818H85.1922ZM86.6752 26.0909C86.6752 26.8324 86.7838 27.4865 87.0012 28.0533C87.2185 28.6158 87.536 29.0568 87.9536 29.3764C88.3712 29.6918 88.8825 29.8494 89.4877 29.8494C90.1183 29.8494 90.6446 29.6832 91.0665 29.3509C91.4926 29.0142 91.8122 28.5625 92.0253 27.9957C92.2426 27.4247 92.3513 26.7898 92.3513 26.0909C92.3513 25.4006 92.2448 24.7784 92.0317 24.2244C91.8229 23.6662 91.5054 23.2251 91.0793 22.9013C90.6574 22.5732 90.1269 22.4091 89.4877 22.4091C88.874 22.4091 88.3584 22.5646 87.9408 22.8757C87.5232 23.1825 87.2078 23.6129 86.9948 24.1669C86.7817 24.7166 86.6752 25.358 86.6752 26.0909ZM97.6695 17.9091V31H96.161V17.9091H97.6695ZM104.421 31.2045C103.535 31.2045 102.757 30.9936 102.088 30.5717C101.423 30.1499 100.903 29.5597 100.528 28.8011C100.158 28.0426 99.9722 27.1562 99.9722 26.142C99.9722 25.1193 100.158 24.2266 100.528 23.4638C100.903 22.701 101.423 22.1087 102.088 21.6868C102.757 21.2649 103.535 21.054 104.421 21.054C105.307 21.054 106.083 21.2649 106.748 21.6868C107.417 22.1087 107.937 22.701 108.307 23.4638C108.682 24.2266 108.87 25.1193 108.87 26.142C108.87 27.1562 108.682 28.0426 108.307 28.8011C107.937 29.5597 107.417 30.1499 106.748 30.5717C106.083 30.9936 105.307 31.2045 104.421 31.2045ZM104.421 29.8494C105.094 29.8494 105.648 29.6768 106.083 29.3317C106.518 28.9865 106.839 28.5327 107.048 27.9702C107.257 27.4077 107.361 26.7983 107.361 26.142C107.361 25.4858 107.257 24.8743 107.048 24.3075C106.839 23.7408 106.518 23.2827 106.083 22.9332C105.648 22.5838 105.094 22.4091 104.421 22.4091C103.748 22.4091 103.194 22.5838 102.759 22.9332C102.324 23.2827 102.003 23.7408 101.794 24.3075C101.585 24.8743 101.481 25.4858 101.481 26.142C101.481 26.7983 101.585 27.4077 101.794 27.9702C102.003 28.5327 102.324 28.9865 102.759 29.3317C103.194 29.6768 103.748 29.8494 104.421 29.8494ZM111.173 31V21.1818H112.63V22.6648H112.732C112.911 22.179 113.235 21.7848 113.704 21.4822C114.173 21.1797 114.701 21.0284 115.289 21.0284C115.4 21.0284 115.538 21.0305 115.705 21.0348C115.871 21.0391 115.997 21.0455 116.082 21.054V22.5881C116.031 22.5753 115.913 22.5561 115.73 22.5305C115.551 22.5007 115.362 22.4858 115.161 22.4858C114.684 22.4858 114.258 22.5859 113.883 22.7862C113.512 22.9822 113.218 23.255 113.001 23.6044C112.788 23.9496 112.681 24.3437 112.681 24.7869V31H111.173ZM121.688 31.2045C120.742 31.2045 119.926 30.9957 119.239 30.5781C118.558 30.1562 118.031 29.5682 117.661 28.8139C117.294 28.0554 117.111 27.1733 117.111 26.1676C117.111 25.1619 117.294 24.2756 117.661 23.5085C118.031 22.7372 118.547 22.1364 119.207 21.706C119.872 21.2713 120.648 21.054 121.534 21.054C122.046 21.054 122.551 21.1392 123.049 21.3097C123.548 21.4801 124.002 21.7571 124.411 22.1406C124.82 22.5199 125.146 23.0227 125.389 23.6491C125.631 24.2756 125.753 25.0469 125.753 25.9631V26.6023H118.185V25.2983H124.219C124.219 24.7443 124.108 24.25 123.886 23.8153C123.669 23.3807 123.358 23.0376 122.953 22.7862C122.553 22.5348 122.08 22.4091 121.534 22.4091C120.933 22.4091 120.413 22.5582 119.975 22.8565C119.54 23.1506 119.205 23.5341 118.971 24.0071C118.737 24.4801 118.619 24.9872 118.619 25.5284V26.3977C118.619 27.1392 118.747 27.7678 119.003 28.2834C119.263 28.7947 119.623 29.1847 120.083 29.4531C120.543 29.7173 121.078 29.8494 121.688 29.8494C122.084 29.8494 122.442 29.794 122.761 29.6832C123.085 29.5682 123.364 29.3977 123.599 29.1719C123.833 28.9418 124.014 28.6562 124.142 28.3153L125.6 28.7244C125.446 29.2188 125.188 29.6534 124.826 30.0284C124.464 30.3991 124.016 30.6889 123.484 30.8977C122.951 31.1023 122.352 31.2045 121.688 31.2045Z" fill="black"/>
</svg>
